HIERARCHY
ROOT Hips
{
  OFFSET 51.7007 100.971 41.2358
  CHANNELS 6 Xposition Yposition Zposition Zrotation Xrotation Yrotation
  JOINT spine
  {
    OFFSET 0 8.81705 0.507024
    CHANNELS 3 Zrotation Xrotation Yrotation
    JOINT spine1
    {
      OFFSET 0 10.7766 0
      CHANNELS 3 Zrotation Xrotation Yrotation
      JOINT spine2
      {
        OFFSET 0 10.3259 0
        CHANNELS 3 Zrotation Xrotation Yrotation
        JOINT Neck
        {
          OFFSET 0 26.511 1.26395
          CHANNELS 3 Zrotation Xrotation Yrotation
          JOINT Head
          {
            OFFSET 0 8.00966 0
            CHANNELS 3 Zrotation Xrotation Yrotation
            End Site
            {
              OFFSET 0 19.3879 -6.39386
            }
          }
        }
        JOINT RightShoulder
        {
          OFFSET -4.34795 11.1512 -0.605422
          CHANNELS 3 Zrotation Xrotation Yrotation
          JOINT RightArm
          {
            OFFSET 0 14.6258 0
            CHANNELS 3 Zrotation Xrotation Yrotation
            JOINT RightArmRoll
            {
              OFFSET 0 7.3834 0
              CHANNELS 3 Zrotation Xrotation Yrotation
              JOINT RightForeArm
              {
                OFFSET 0 21.5052 0
                CHANNELS 3 Zrotation Xrotation Yrotation
                JOINT RightForeArmRoll
                {
                  OFFSET 0 8.28532 0
                  CHANNELS 3 Zrotation Xrotation Yrotation
                  JOINT RightHand
                  {
                    OFFSET 0 16.6268 0
                    CHANNELS 3 Zrotation Xrotation Yrotation
                    End Site
                    {
                      OFFSET 0 0 0
                    }
                  }
                }
              }
            }
          }
        }
        JOINT LeftShoulder
        {
          OFFSET 4.34795 11.1512 -0.605422
          CHANNELS 3 Zrotation Xrotation Yrotation
          JOINT LeftArm
          {
            OFFSET 0 14.6258 0
            CHANNELS 3 Zrotation Xrotation Yrotation
            JOINT LeftArmRoll
            {
              OFFSET 0 7.3834 0
              CHANNELS 3 Zrotation Xrotation Yrotation
              JOINT LeftForeArm
              {
                OFFSET 0 21.5052 0
                CHANNELS 3 Zrotation Xrotation Yrotation
                JOINT LeftForeArmRoll
                {
                  OFFSET 0 8.28531 0
                  CHANNELS 3 Zrotation Xrotation Yrotation
                  JOINT LeftHand
                  {
                    OFFSET 0 16.6268 0
                    CHANNELS 3 Zrotation Xrotation Yrotation
                    End Site
                    {
                      OFFSET 0 0 0
                    }
                  }
                }
              }
            }
          }
        }
      }
    }
  }
  JOINT RightUpLeg
  {
    OFFSET -7.8151 -1.43309 -1.20217
    CHANNELS 3 Zrotation Xrotation Yrotation
    JOINT RightUpLegRoll
    {
      OFFSET 0 19.4959 0
      CHANNELS 3 Zrotation Xrotation Yrotation
      JOINT RightLeg
      {
        OFFSET 0 -24.1427 0
        CHANNELS 3 Zrotation Xrotation Yrotation
        JOINT RightLegRoll
        {
          OFFSET 0 24.2217 0
          CHANNELS 3 Zrotation Xrotation Yrotation
          JOINT RightFoot
          {
            OFFSET 0 20.1605 0
            CHANNELS 3 Zrotation Xrotation Yrotation
            JOINT RightToeBase
            {
              OFFSET 0 16.8532 0
              CHANNELS 3 Zrotation Xrotation Yrotation
              End Site
              {
                OFFSET 0.00714343 8.16186 -0.940781
              }
            }
          }
        }
      }
    }
  }
  JOINT LeftUpLeg
  {
    OFFSET 7.8151 -1.43309 -1.20217
    CHANNELS 3 Zrotation Xrotation Yrotation
    JOINT LeftUpLegRoll
    {
      OFFSET 0 19.4959 0
      CHANNELS 3 Zrotation Xrotation Yrotation
      JOINT LeftLeg
      {
        OFFSET 0 24.1426 0
        CHANNELS 3 Zrotation Xrotation Yrotation
        JOINT LeftLegRoll
        {
          OFFSET 0 24.4456 0
          CHANNELS 3 Zrotation Xrotation Yrotation
          JOINT LeftFoot
          {
            OFFSET 0 19.9366 0
            CHANNELS 3 Zrotation Xrotation Yrotation
            JOINT LeftToeBase
            {
              OFFSET 0 16.8532 0
              CHANNELS 3 Zrotation Xrotation Yrotation
              End Site
              {
                OFFSET -0.0320138 8.16186 -0.940781
              }
            }
          }
        }
      }
    }
  }
}
MOTION
Frames: 10
Frame Time: 0.00208333
50.643 69.6237 20.0897 -0.988092 34.9277 -0.508355 0.760488 2.15677 0.0129178 1.53202 8.31516 -0.114313 1.53765 9.9599 -0.140579 -3.98989 13.1643 3.05721 -8.70896 -8.89271 0.477739 53.1247 -2.78526 -1.22342 108.337 21.2689 -41.5151 -6.36111e-015 -1.27222e-014 9.54166e-015 10.8038 75.9541 -9.12177 -2.29693e-005 -1.35803e-005 -3.01212 8.02887 -4.95084 0.697412 -54.5738 -8.88065 5.44767 -104.406 21.0725 43.0773 3.18055e-015 1.90833e-014 6.36111e-015 -5.19117 70.8456 5.05157 3.23876e-006 -6.52935e-006 3.00705 -8.02885 -4.95108 -0.697515 21.3616 76.3613 161.114 180 1.52576e-005 179.275 135.84 85.359 -140.186 4.47441e-006 -4.94401e-006 1.49592 -46.8256 80.2139 46.1655 8.13662 25.2346 -3.48327 -33.0505 74.2017 -145.74 4.54188e-006 -4.6773e-006 -0.701601 15.3243 -88.8167 16.0488 1.01451e-006 -3.05325e-006 -2.2291 49.9436 81.8595 -52.9324 -8.12618 25.2274 3.49131 
50.6337 69.8041 20.0895 -0.978008 34.9211 -0.515094 0.758117 2.14546 0.0115427 1.52744 8.29252 -0.117641 1.5331 9.93726 -0.143831 -3.99077 13.1631 3.0607 -8.70368 -8.89078 0.482164 53.2036 -2.76604 -1.2179 108.355 21.4219 -41.3063 -3.18055e-015 -6.36111e-015 3.18055e-015 11.3443 75.5593 -9.45084 -2.29693e-005 -1.35803e-005 -3.01212 8.02887 -4.95084 0.697412 -54.6019 -8.85733 5.4324 -104.486 21.1663 42.9178 3.18055e-014 -1.43125e-014 -6.36111e-015 -5.60781 70.5476 5.29884 3.23876e-006 -6.52935e-006 3.00705 -8.02885 -4.95108 -0.697515 21.6957 76.5707 160.757 180 1.52576e-005 179.277 137.531 85.1501 -141.911 4.47441e-006 -4.94401e-006 1.4895 -46.7199 80.1883 46.0387 8.13662 25.2346 -3.48327 -33.5537 74.3805 -145.236 4.54188e-006 -4.6773e-006 -0.700443 10.6568 -88.5802 11.4302 1.01451e-006 -3.05325e-006 -2.21777 49.8019 81.834 -52.7634 -8.1262 25.2277 3.49093 
50.63 69.9985 20.1075 -0.967583 34.9134 -0.522645 0.755633 2.13427 0.0100564 1.52263 8.27012 -0.121 1.52832 9.91487 -0.14711 -3.99191 13.1585 3.06478 -8.69839 -8.88537 0.487508 53.2808 -2.74744 -1.21264 108.377 21.5758 -41.0977 0 6.36111e-015 -0 11.8585 75.1585 -9.75304 -2.29693e-005 -1.35803e-005 -3.01212 8.02887 -4.95084 0.697412 -54.629 -8.83567 5.41825 -104.572 21.2632 42.7583 7.06225e-031 1.27222e-014 -3.18055e-015 -6.01799 70.2457 5.53832 3.23876e-006 -6.52935e-006 3.00705 -8.02885 -4.95108 -0.697515 22.0411 76.7817 160.386 180 1.52576e-005 179.28 139.105 84.9364 -143.518 4.47441e-006 -4.94401e-006 1.48301 -46.6067 80.162 45.9069 8.13662 25.2346 -3.48327 -34.0702 74.5593 -144.717 4.54188e-006 -4.6773e-006 -0.699252 7.3408 -88.3349 8.16258 1.01451e-006 -3.05325e-006 -2.20629 49.6433 81.8064 -52.5784 -8.12625 25.2283 3.49004 
50.6123 70.1462 20.1376 -0.956783 34.9046 -0.531079 0.753029 2.12324 0.00843702 1.51755 8.24805 -0.124391 1.52326 9.89279 -0.150417 -3.99332 13.1498 3.06947 -8.69302 -8.87591 0.493869 53.3557 -2.72972 -1.20781 108.404 21.7309 -40.8895 -3.18055e-015 -6.36111e-015 -0 12.3485 74.7521 -10.0305 -2.29693e-005 -1.35803e-005 -3.01212 8.02887 -4.95084 0.697412 -54.6548 -8.81603 5.40543 -104.664 21.3635 42.5989 -1.58901e-030 1.43125e-014 6.36111e-015 -6.42191 69.9395 5.77013 3.23876e-006 -6.52935e-006 3.00705 -8.02885 -4.95108 -0.697515 22.3985 76.9944 160.003 180 1.52576e-005 179.282 140.575 84.7182 -145.02 4.47441e-006 -4.94401e-006 1.47643 -46.4856 80.1351 45.77 8.13662 25.2346 -3.48327 -34.6001 74.7382 -144.184 4.54188e-006 -4.6773e-006 -0.698032 4.89307 -88.0834 5.76269 1.01451e-006 -3.05325e-006 -2.1947 49.4668 81.7767 -52.3762 -8.12632 25.2294 3.48856 
50.6125 70.2816 20.1815 -0.945576 34.8946 -0.540465 0.750293 2.1124 0.00666231 1.51219 8.22636 -0.127813 1.51793 9.87111 -0.153751 -3.995 13.1365 3.0748 -8.68749 -8.86184 0.50135 53.4281 -2.71315 -1.20355 108.436 21.8874 -40.682 -6.36111e-015 -1.59028e-014 6.36111e-015 12.8164 74.3404 -10.2852 -2.29693e-005 -1.35803e-005 -3.01212 8.02887 -4.95084 0.697412 -54.6792 -8.79873 5.39419 -104.762 21.4674 42.44 9.54166e-015 -3.18055e-015 -3.18055e-015 -6.81972 69.629 5.99438 3.23876e-006 -6.52935e-006 3.00705 -8.02885 -4.95108 -0.697515 22.7683 77.2088 159.604 180 1.52576e-005 179.285 141.955 84.496 -146.431 4.47441e-006 -4.94401e-006 1.46976 -46.3559 80.1078 45.6279 8.13662 25.2346 -3.48327 -35.1435 74.9172 -143.636 4.54188e-006 -4.6773e-006 -0.696788 3.03166 -87.827 3.94838 1.01451e-006 -3.05325e-006 -2.18305 49.2715 81.7446 -52.1558 -8.12644 25.231 3.48641 
50.6027 70.457 20.2028 -0.93393 34.8832 -0.550875 0.747418 2.10179 0.00471019 1.50652 8.20512 -0.131269 1.51228 9.84987 -0.157114 -3.99694 13.1179 3.08079 -8.68171 -8.84261 0.510051 53.4974 -2.69801 -1.2 108.474 22.0454 -40.4752 -3.18055e-015 -3.18055e-015 -0 13.264 73.9236 -10.519 -2.29693e-005 -1.35803e-005 -3.01212 8.02887 -4.95084 0.697412 -54.702 -8.78412 5.38473 -104.868 21.575 42.2819 3.18055e-015 1.90833e-014 6.36111e-015 -7.21159 69.3139 6.21117 3.23876e-006 -6.52935e-006 3.00705 -8.02885 -4.95108 -0.697515 23.1514 77.4252 159.191 180 1.52576e-005 179.287 143.255 84.2701 -147.759 4.47441e-006 -4.94401e-006 1.46297 -46.217 80.08 45.4805 8.13662 25.2346 -3.48327 -35.7008 75.0963 -143.073 4.54188e-006 -4.6773e-006 -0.695522 1.58386 -87.5668 2.54678 1.01451e-006 -3.05325e-006 -2.17141 49.0564 81.7099 -51.9162 -8.12659 25.2332 3.48351 
50.5937 70.6556 20.2105 -0.921902 34.8706 -0.562056 0.744294 2.09144 0.00258024 1.50033 8.1844 -0.13472 1.50611 9.82916 -0.160464 -3.9965 13.0929 3.0873 -8.67807 -8.81662 0.520202 53.5671 -2.68465 -1.19773 108.514 22.2055 -40.2698 3.18055e-015 0 -6.36111e-015 13.6921 73.5003 -10.7323 -2.29693e-005 -1.35803e-005 -3.01212 8.02887 -4.95084 0.697412 -54.7213 -8.77231 5.3771 -104.981 21.6865 42.1257 1.27222e-014 -1.59028e-015 -3.18055e-015 -7.59828 68.9952 6.42156 3.23876e-006 -6.52935e-006 3.00705 -8.02885 -4.95108 -0.697515 23.551 77.6435 158.758 180 1.52576e-005 179.29 144.485 84.0405 -149.017 4.47441e-006 -4.94401e-006 1.45605 -46.0683 80.052 45.3282 8.13662 25.2346 -3.48327 -36.2725 75.2757 -142.493 4.54188e-006 -4.6773e-006 -0.694221 0.431511 -87.3023 1.43993 1.01451e-006 -3.05325e-006 -2.15959 48.818 81.6721 -51.6544 -8.12677 25.2358 3.47995 
50.5951 70.8232 20.2283 -0.909574 34.8569 -0.573742 0.740854 2.08135 0.000297737 1.49348 8.1642 -0.138138 1.49928 9.80896 -0.16377 -3.99176 13.0614 3.09423 -8.67843 -8.78333 0.531852 53.6398 -2.67303 -1.197 108.553 22.368 -40.0657 -6.36111e-015 6.36111e-015 -3.18055e-015 14.1012 73.0693 -10.9252 -2.29693e-005 -1.35803e-005 -3.01212 8.02887 -4.95084 0.697412 -54.7361 -8.763 5.37107 -105.103 21.8017 41.9723 3.18055e-015 1.43125e-014 3.18055e-015 -7.98046 68.6739 6.62651 3.23876e-006 -6.52935e-006 3.00705 -8.02885 -4.95108 -0.697515 23.9707 77.8637 158.303 180 1.52576e-005 179.292 145.651 83.8071 -150.209 4.47441e-006 -4.94401e-006 1.449 -45.9103 80.0236 45.1709 8.13662 25.2346 -3.48327 -36.8596 75.4553 -141.897 4.54188e-006 -4.6773e-006 -0.692872 -0.506237 -87.0333 0.547281 1.01451e-006 -3.05325e-006 -2.14743 48.5554 81.6311 -51.3695 -8.12697 25.2389 3.47587 
50.5836 70.9819 20.2581 -0.896951 34.842 -0.585981 0.737146 2.07147 -0.00212095 1.48609 8.14443 -0.141538 1.4919 9.78919 -0.167048 -3.98376 13.0242 3.1016 -8.68189 -8.74381 0.544836 53.7148 -2.66281 -1.19746 108.592 22.5325 -39.8627 -1.59028e-014 -2.54444e-014 9.54166e-015 14.4927 72.631 -11.0993 -2.29693e-005 -1.35803e-005 -3.01212 8.02887 -4.95084 0.697412 -54.7473 -8.75588 5.36645 -105.232 21.9204 41.8209 -2.64834e-030 9.54166e-015 1.59028e-014 -8.35811 68.3499 6.82596 3.23876e-006 -6.52935e-006 3.00705 -8.02885 -4.95108 -0.697515 24.4111 78.0854 157.824 180 1.52576e-005 179.294 146.756 83.57 -151.337 4.47441e-006 -4.94401e-006 1.44184 -45.7438 79.9948 45.0091 8.13662 25.2346 -3.48327 -37.4631 75.6349 -141.282 4.54188e-006 -4.6773e-006 -0.691477 -1.28056 -86.7604 -0.182291 1.01451e-006 -3.05325e-006 -2.13494 48.2719 81.5871 -51.0648 -8.1272 25.2423 3.4713 
50.5665 71.1555 20.2694 -0.884036 34.8261 -0.59882 0.733221 2.06176 -0.00465942 1.47824 8.12501 -0.144933 1.48407 9.76977 -0.170315 -3.97356 12.9822 3.10946 -8.68757 -8.6991 0.558986 53.7908 -2.65363 -1.19878 108.632 22.6987 -39.6604 -9.54166e-015 -3.18055e-015 -3.18055e-015 14.8676 72.1858 -11.2559 -2.29693e-005 -1.35803e-005 -3.01212 8.02887 -4.95084 0.697412 -54.7557 -8.75067 5.36307 -105.367 22.0425 41.6707 9.54166e-015 1.59028e-014 6.36111e-015 -8.73122 68.0227 7.01986 3.23876e-006 -6.52935e-006 3.00705 -8.02885 -4.95108 -0.697515 24.8729 78.3086 157.323 180 1.52576e-005 179.297 147.801 83.3292 -152.406 4.47441e-006 -4.94401e-006 1.43459 -45.5695 79.9655 44.8426 8.13662 25.2346 -3.48327 -38.0842 75.8143 -140.648 4.54188e-006 -4.6773e-006 -0.690039 -1.9284 -86.4841 -0.785674 1.01451e-006 -3.05325e-006 -2.12215 47.9705 81.5404 -50.7431 -8.12745 25.246 3.46627 
